<mxfile host="Electron" modified="2023-07-10T20:40:48.083Z" agent="Mozilla/5.0 (Macintosh; Intel Mac OS X 10_15_7) AppleWebKit/537.36 (KHTML, like Gecko) draw.io/21.5.1 Chrome/112.0.5615.204 Electron/24.6.0 Safari/537.36" etag="XyssoluhHE6zqNUgu71N" version="21.5.1" type="device">
  <diagram name="traits" id="J1QYEzPDVFck905wsPO7">
    <mxGraphModel dx="2269" dy="1640" grid="1" gridSize="10" guides="1" tooltips="1" connect="1" arrows="1" fold="1" page="1" pageScale="1" pageWidth="827" pageHeight="1169" math="0" shadow="0">
      <root>
        <mxCell id="0" />
        <mxCell id="1" parent="0" />
        <mxCell id="vXFJJJUFauFDbbAC1j7B-3" value="" style="edgeStyle=orthogonalEdgeStyle;rounded=0;orthogonalLoop=1;jettySize=auto;html=1;" edge="1" parent="1" source="vXFJJJUFauFDbbAC1j7B-1" target="vXFJJJUFauFDbbAC1j7B-2">
          <mxGeometry relative="1" as="geometry" />
        </mxCell>
        <mxCell id="vXFJJJUFauFDbbAC1j7B-5" style="edgeStyle=orthogonalEdgeStyle;rounded=0;orthogonalLoop=1;jettySize=auto;html=1;" edge="1" parent="1" source="vXFJJJUFauFDbbAC1j7B-1" target="vXFJJJUFauFDbbAC1j7B-4">
          <mxGeometry relative="1" as="geometry" />
        </mxCell>
        <mxCell id="vXFJJJUFauFDbbAC1j7B-7" style="edgeStyle=orthogonalEdgeStyle;rounded=0;orthogonalLoop=1;jettySize=auto;html=1;entryX=0.5;entryY=0;entryDx=0;entryDy=0;" edge="1" parent="1" source="vXFJJJUFauFDbbAC1j7B-1" target="vXFJJJUFauFDbbAC1j7B-6">
          <mxGeometry relative="1" as="geometry" />
        </mxCell>
        <mxCell id="vXFJJJUFauFDbbAC1j7B-1" value="Struct-1" style="rounded=1;whiteSpace=wrap;html=1;fillColor=#fff2cc;strokeColor=#d6b656;" vertex="1" parent="1">
          <mxGeometry x="360" y="190" width="80" height="60" as="geometry" />
        </mxCell>
        <mxCell id="vXFJJJUFauFDbbAC1j7B-2" value="Trait-A" style="rounded=1;whiteSpace=wrap;html=1;fillColor=#f8cecc;strokeColor=#b85450;" vertex="1" parent="1">
          <mxGeometry x="360" y="290" width="80" height="60" as="geometry" />
        </mxCell>
        <mxCell id="vXFJJJUFauFDbbAC1j7B-4" value="Trait-B" style="rounded=1;whiteSpace=wrap;html=1;fillColor=#f8cecc;strokeColor=#b85450;" vertex="1" parent="1">
          <mxGeometry x="501" y="290" width="80" height="60" as="geometry" />
        </mxCell>
        <mxCell id="vXFJJJUFauFDbbAC1j7B-6" value="Trait-C" style="rounded=1;whiteSpace=wrap;html=1;fillColor=#f8cecc;strokeColor=#b85450;" vertex="1" parent="1">
          <mxGeometry x="630" y="290" width="80" height="60" as="geometry" />
        </mxCell>
        <mxCell id="vXFJJJUFauFDbbAC1j7B-9" style="edgeStyle=orthogonalEdgeStyle;rounded=0;orthogonalLoop=1;jettySize=auto;html=1;entryX=0.5;entryY=1;entryDx=0;entryDy=0;" edge="1" parent="1" source="vXFJJJUFauFDbbAC1j7B-8" target="vXFJJJUFauFDbbAC1j7B-2">
          <mxGeometry relative="1" as="geometry">
            <Array as="points">
              <mxPoint x="220" y="150" />
              <mxPoint x="220" y="410" />
              <mxPoint x="400" y="410" />
            </Array>
          </mxGeometry>
        </mxCell>
        <mxCell id="vXFJJJUFauFDbbAC1j7B-10" style="edgeStyle=orthogonalEdgeStyle;rounded=0;orthogonalLoop=1;jettySize=auto;html=1;entryX=0.5;entryY=1;entryDx=0;entryDy=0;" edge="1" parent="1" source="vXFJJJUFauFDbbAC1j7B-8" target="vXFJJJUFauFDbbAC1j7B-4">
          <mxGeometry relative="1" as="geometry">
            <Array as="points">
              <mxPoint x="220" y="150" />
              <mxPoint x="220" y="410" />
              <mxPoint x="541" y="410" />
            </Array>
          </mxGeometry>
        </mxCell>
        <mxCell id="vXFJJJUFauFDbbAC1j7B-8" value="Struct-2" style="rounded=1;whiteSpace=wrap;html=1;fillColor=#fff2cc;strokeColor=#d6b656;" vertex="1" parent="1">
          <mxGeometry x="360" y="120" width="80" height="60" as="geometry" />
        </mxCell>
        <mxCell id="vXFJJJUFauFDbbAC1j7B-12" style="edgeStyle=orthogonalEdgeStyle;rounded=0;orthogonalLoop=1;jettySize=auto;html=1;entryX=0.5;entryY=1;entryDx=0;entryDy=0;" edge="1" parent="1" source="vXFJJJUFauFDbbAC1j7B-11" target="vXFJJJUFauFDbbAC1j7B-6">
          <mxGeometry relative="1" as="geometry">
            <Array as="points">
              <mxPoint x="190" y="80" />
              <mxPoint x="190" y="470" />
              <mxPoint x="670" y="470" />
            </Array>
          </mxGeometry>
        </mxCell>
        <mxCell id="vXFJJJUFauFDbbAC1j7B-11" value="Struct-3" style="rounded=1;whiteSpace=wrap;html=1;fillColor=#fff2cc;strokeColor=#d6b656;" vertex="1" parent="1">
          <mxGeometry x="360" y="50" width="80" height="60" as="geometry" />
        </mxCell>
        <mxCell id="vXFJJJUFauFDbbAC1j7B-13" value="" style="swimlane;startSize=0;" vertex="1" parent="1">
          <mxGeometry x="300" y="880" width="390" height="255" as="geometry" />
        </mxCell>
        <mxCell id="vXFJJJUFauFDbbAC1j7B-14" value="Struct-2 variables" style="rounded=1;whiteSpace=wrap;html=1;fillColor=#fff2cc;strokeColor=#d6b656;" vertex="1" parent="vXFJJJUFauFDbbAC1j7B-13">
          <mxGeometry x="10" y="35" width="80" height="60" as="geometry" />
        </mxCell>
        <mxCell id="vXFJJJUFauFDbbAC1j7B-15" value="Trait-A&lt;br&gt;functions" style="rounded=1;whiteSpace=wrap;html=1;fillColor=#f8cecc;strokeColor=#b85450;" vertex="1" parent="vXFJJJUFauFDbbAC1j7B-13">
          <mxGeometry x="10" y="135" width="80" height="60" as="geometry" />
        </mxCell>
        <mxCell id="vXFJJJUFauFDbbAC1j7B-16" value="Trait-B&lt;br&gt;functions" style="rounded=1;whiteSpace=wrap;html=1;fillColor=#f8cecc;strokeColor=#b85450;" vertex="1" parent="vXFJJJUFauFDbbAC1j7B-13">
          <mxGeometry x="151" y="135" width="80" height="60" as="geometry" />
        </mxCell>
        <mxCell id="vXFJJJUFauFDbbAC1j7B-18" value="" style="swimlane;startSize=0;" vertex="1" parent="1">
          <mxGeometry x="299" y="595" width="390" height="255" as="geometry" />
        </mxCell>
        <mxCell id="vXFJJJUFauFDbbAC1j7B-19" value="Struct-1 variables" style="rounded=1;whiteSpace=wrap;html=1;fillColor=#fff2cc;strokeColor=#d6b656;" vertex="1" parent="vXFJJJUFauFDbbAC1j7B-18">
          <mxGeometry x="10" y="35" width="80" height="60" as="geometry" />
        </mxCell>
        <mxCell id="vXFJJJUFauFDbbAC1j7B-20" value="Trait-A functions" style="rounded=1;whiteSpace=wrap;html=1;fillColor=#f8cecc;strokeColor=#b85450;" vertex="1" parent="vXFJJJUFauFDbbAC1j7B-18">
          <mxGeometry x="11" y="135" width="80" height="60" as="geometry" />
        </mxCell>
        <mxCell id="vXFJJJUFauFDbbAC1j7B-21" value="Trait-B&lt;br&gt;functions" style="rounded=1;whiteSpace=wrap;html=1;fillColor=#f8cecc;strokeColor=#b85450;" vertex="1" parent="vXFJJJUFauFDbbAC1j7B-18">
          <mxGeometry x="151" y="135" width="80" height="60" as="geometry" />
        </mxCell>
        <mxCell id="vXFJJJUFauFDbbAC1j7B-22" value="Trait-C&lt;br&gt;functions" style="rounded=1;whiteSpace=wrap;html=1;fillColor=#f8cecc;strokeColor=#b85450;" vertex="1" parent="vXFJJJUFauFDbbAC1j7B-18">
          <mxGeometry x="280" y="135" width="80" height="60" as="geometry" />
        </mxCell>
        <mxCell id="vXFJJJUFauFDbbAC1j7B-23" value="" style="swimlane;startSize=0;" vertex="1" parent="1">
          <mxGeometry x="300" y="1160" width="390" height="255" as="geometry" />
        </mxCell>
        <mxCell id="vXFJJJUFauFDbbAC1j7B-24" value="Struct-3 variables" style="rounded=1;whiteSpace=wrap;html=1;fillColor=#fff2cc;strokeColor=#d6b656;" vertex="1" parent="vXFJJJUFauFDbbAC1j7B-23">
          <mxGeometry x="10" y="35" width="80" height="60" as="geometry" />
        </mxCell>
        <mxCell id="vXFJJJUFauFDbbAC1j7B-25" value="Trait-A&lt;br&gt;functions" style="rounded=1;whiteSpace=wrap;html=1;fillColor=#f8cecc;strokeColor=#b85450;" vertex="1" parent="vXFJJJUFauFDbbAC1j7B-23">
          <mxGeometry x="10" y="135" width="80" height="60" as="geometry" />
        </mxCell>
        <mxCell id="vXFJJJUFauFDbbAC1j7B-27" value="Function&lt;br&gt;&lt;font style=&quot;font-size: 9px;&quot;&gt;taking object with trait B as input&lt;/font&gt;" style="rhombus;whiteSpace=wrap;html=1;fillColor=#d5e8d4;strokeColor=#82b366;" vertex="1" parent="1">
          <mxGeometry x="580" y="1670" width="190" height="160" as="geometry" />
        </mxCell>
        <mxCell id="vXFJJJUFauFDbbAC1j7B-31" style="edgeStyle=orthogonalEdgeStyle;rounded=0;orthogonalLoop=1;jettySize=auto;html=1;" edge="1" parent="1" source="vXFJJJUFauFDbbAC1j7B-28" target="vXFJJJUFauFDbbAC1j7B-27">
          <mxGeometry relative="1" as="geometry" />
        </mxCell>
        <mxCell id="vXFJJJUFauFDbbAC1j7B-36" value="✅" style="edgeLabel;html=1;align=center;verticalAlign=middle;resizable=0;points=[];" vertex="1" connectable="0" parent="vXFJJJUFauFDbbAC1j7B-31">
          <mxGeometry x="-0.7155" y="-2" relative="1" as="geometry">
            <mxPoint as="offset" />
          </mxGeometry>
        </mxCell>
        <mxCell id="vXFJJJUFauFDbbAC1j7B-28" value="Struct-1" style="rounded=1;whiteSpace=wrap;html=1;fillColor=#fff2cc;strokeColor=#d6b656;" vertex="1" parent="1">
          <mxGeometry x="404" y="1770" width="80" height="60" as="geometry" />
        </mxCell>
        <mxCell id="vXFJJJUFauFDbbAC1j7B-32" style="edgeStyle=orthogonalEdgeStyle;rounded=0;orthogonalLoop=1;jettySize=auto;html=1;" edge="1" parent="1" source="vXFJJJUFauFDbbAC1j7B-29">
          <mxGeometry relative="1" as="geometry">
            <mxPoint x="580" y="1750" as="targetPoint" />
          </mxGeometry>
        </mxCell>
        <mxCell id="vXFJJJUFauFDbbAC1j7B-35" value="✅" style="edgeLabel;html=1;align=center;verticalAlign=middle;resizable=0;points=[];" vertex="1" connectable="0" parent="vXFJJJUFauFDbbAC1j7B-32">
          <mxGeometry x="-0.67" relative="1" as="geometry">
            <mxPoint as="offset" />
          </mxGeometry>
        </mxCell>
        <mxCell id="vXFJJJUFauFDbbAC1j7B-29" value="Struct-2" style="rounded=1;whiteSpace=wrap;html=1;fillColor=#fff2cc;strokeColor=#d6b656;" vertex="1" parent="1">
          <mxGeometry x="404" y="1700" width="80" height="60" as="geometry" />
        </mxCell>
        <mxCell id="vXFJJJUFauFDbbAC1j7B-33" style="edgeStyle=orthogonalEdgeStyle;rounded=0;orthogonalLoop=1;jettySize=auto;html=1;entryX=0;entryY=0.5;entryDx=0;entryDy=0;" edge="1" parent="1" source="vXFJJJUFauFDbbAC1j7B-30" target="vXFJJJUFauFDbbAC1j7B-27">
          <mxGeometry relative="1" as="geometry" />
        </mxCell>
        <mxCell id="vXFJJJUFauFDbbAC1j7B-34" value="❌" style="edgeLabel;html=1;align=center;verticalAlign=middle;resizable=0;points=[];" vertex="1" connectable="0" parent="vXFJJJUFauFDbbAC1j7B-33">
          <mxGeometry x="-0.7601" y="2" relative="1" as="geometry">
            <mxPoint as="offset" />
          </mxGeometry>
        </mxCell>
        <mxCell id="vXFJJJUFauFDbbAC1j7B-30" value="Struct-3" style="rounded=1;whiteSpace=wrap;html=1;fillColor=#fff2cc;strokeColor=#d6b656;" vertex="1" parent="1">
          <mxGeometry x="404" y="1630" width="80" height="60" as="geometry" />
        </mxCell>
        <mxCell id="vXFJJJUFauFDbbAC1j7B-45" style="edgeStyle=orthogonalEdgeStyle;rounded=0;orthogonalLoop=1;jettySize=auto;html=1;entryX=0;entryY=0.5;entryDx=0;entryDy=0;" edge="1" parent="1" source="vXFJJJUFauFDbbAC1j7B-37" target="vXFJJJUFauFDbbAC1j7B-44">
          <mxGeometry relative="1" as="geometry" />
        </mxCell>
        <mxCell id="vXFJJJUFauFDbbAC1j7B-37" value="Miles&lt;br&gt;[struct]" style="rounded=1;whiteSpace=wrap;html=1;fillColor=#fff2cc;strokeColor=#d6b656;" vertex="1" parent="1">
          <mxGeometry x="270" y="2020" width="80" height="60" as="geometry" />
        </mxCell>
        <mxCell id="vXFJJJUFauFDbbAC1j7B-38" value="Kilometers&lt;br&gt;[struct]" style="rounded=1;whiteSpace=wrap;html=1;fillColor=#fff2cc;strokeColor=#d6b656;" vertex="1" parent="1">
          <mxGeometry x="660" y="2020" width="80" height="60" as="geometry" />
        </mxCell>
        <mxCell id="vXFJJJUFauFDbbAC1j7B-43" style="edgeStyle=orthogonalEdgeStyle;rounded=0;orthogonalLoop=1;jettySize=auto;html=1;entryX=0.056;entryY=0.718;entryDx=0;entryDy=0;entryPerimeter=0;" edge="1" parent="1" source="vXFJJJUFauFDbbAC1j7B-41" target="vXFJJJUFauFDbbAC1j7B-42">
          <mxGeometry relative="1" as="geometry" />
        </mxCell>
        <mxCell id="vXFJJJUFauFDbbAC1j7B-41" value="Add&lt;br&gt;[trait]" style="rounded=1;whiteSpace=wrap;html=1;fillColor=#f8cecc;strokeColor=#b85450;" vertex="1" parent="1">
          <mxGeometry x="374" y="1870" width="80" height="60" as="geometry" />
        </mxCell>
        <mxCell id="vXFJJJUFauFDbbAC1j7B-42" value="+" style="text;html=1;align=center;verticalAlign=middle;resizable=0;points=[];autosize=1;strokeColor=default;fillColor=none;" vertex="1" parent="1">
          <mxGeometry x="526" y="1878" width="30" height="30" as="geometry" />
        </mxCell>
        <mxCell id="vXFJJJUFauFDbbAC1j7B-44" value="IntoKilometers&lt;br&gt;[trait]" style="rounded=1;whiteSpace=wrap;html=1;fillColor=#f8cecc;strokeColor=#b85450;" vertex="1" parent="1">
          <mxGeometry x="440" y="2020" width="96" height="60" as="geometry" />
        </mxCell>
        <mxCell id="vXFJJJUFauFDbbAC1j7B-50" style="edgeStyle=orthogonalEdgeStyle;rounded=1;html=1;entryX=0;entryY=0.25;entryDx=0;entryDy=0;startArrow=none;startFill=0;endArrow=classic;endFill=1;exitX=0.5;exitY=1;exitDx=0;exitDy=0;" edge="1" target="vXFJJJUFauFDbbAC1j7B-57" parent="1" source="vXFJJJUFauFDbbAC1j7B-44">
          <mxGeometry relative="1" as="geometry">
            <mxPoint x="655" y="1970" as="sourcePoint" />
            <mxPoint x="625.0000000000002" y="2095" as="targetPoint" />
          </mxGeometry>
        </mxCell>
        <mxCell id="vXFJJJUFauFDbbAC1j7B-58" style="edgeStyle=orthogonalEdgeStyle;rounded=0;orthogonalLoop=1;jettySize=auto;html=1;startArrow=none;endArrow=classic;segment=10;sourcePerimeterSpacing=0;targetPerimeterSpacing=0;entryX=0.5;entryY=1;entryDx=0;entryDy=0;endFill=1;" edge="1" parent="1" source="vXFJJJUFauFDbbAC1j7B-57" target="vXFJJJUFauFDbbAC1j7B-38">
          <mxGeometry relative="1" as="geometry" />
        </mxCell>
        <mxCell id="vXFJJJUFauFDbbAC1j7B-57" value="into_kms()&lt;br&gt;[function]" style="whiteSpace=wrap;html=1;rounded=1;arcSize=50;align=center;verticalAlign=middle;strokeWidth=1;autosize=1;spacing=4;treeFolding=1;treeMoving=1;newEdgeStyle={&quot;edgeStyle&quot;:&quot;entityRelationEdgeStyle&quot;,&quot;startArrow&quot;:&quot;none&quot;,&quot;endArrow&quot;:&quot;none&quot;,&quot;segment&quot;:10,&quot;curved&quot;:1,&quot;sourcePerimeterSpacing&quot;:0,&quot;targetPerimeterSpacing&quot;:0};fillColor=#d5e8d4;strokeColor=#82b366;" vertex="1" parent="1">
          <mxGeometry x="501" y="2090" width="100" height="50" as="geometry" />
        </mxCell>
      </root>
    </mxGraphModel>
  </diagram>
</mxfile>
